{
    "asset" : {
        "generator" : "Khronos glTF Blender I/O v3.3.32",
        "version" : "2.0"
    },
    "extensionsUsed" : [
        "KHR_materials_unlit"
    ],
    "scene" : 0,
    "scenes" : [
        {
            "name" : "Scene",
            "nodes" : [
                0
            ]
        }
    ],
    "nodes" : [
        {
            "mesh" : 0,
            "name" : "Plane",
            "translation" : [
                -23.379358291625977,
                10.05090618133545,
                13.599180221557617
            ]
        }
    ],
    "materials" : [
        {
            "doubleSided" : true,
            "extensions" : {
                "KHR_materials_unlit" : {}
            },
            "name" : "plane",
            "pbrMetallicRoughness" : {
                "baseColorTexture" : {
                    "index" : 0,
                    "texCoord" : 0
                },
                "metallicFactor" : 0,
                "roughnessFactor" : 0.9
            }
        }
    ],
    "meshes" : [
        {
            "name" : "Plane.001",
            "primitives" : [
                {
                    "attributes" : {
                        "POSITION" : 0,
                        "NORMAL" : 1,
                        "TEXCOORD_0" : 2,
                        "TEXCOORD_1" : 3
                    },
                    "indices" : 4,
                    "material" : 0
                },
                {
                    "attributes" : {
                        "POSITION" : 5
                    },
                    "material" : 0,
                    "mode" : 0
                }
            ]
        }
    ],
    "textures" : [
        {
            "sampler" : 0,
            "source" : 0
        }
    ],
    "images" : [
        {
            "mimeType" : "image/png",
            "name" : "full",
            "uri" : "textures/full.png"
        }
    ],
    "accessors" : [
        {
            "bufferView" : 0,
            "componentType" : 5126,
            "count" : 112408,
            "max" : [
                7.747564315795898,
                5.375432968139648,
                7.288537979125977
            ],
            "min" : [
                -12.753950119018555,
                -1.5203676223754883,
                -13.205821990966797
            ],
            "type" : "VEC3"
        },
        {
            "bufferView" : 1,
            "componentType" : 5126,
            "count" : 112408,
            "type" : "VEC3"
        },
        {
            "bufferView" : 2,
            "componentType" : 5126,
            "count" : 112408,
            "type" : "VEC2"
        },
        {
            "bufferView" : 3,
            "componentType" : 5126,
            "count" : 112408,
            "type" : "VEC2"
        },
        {
            "bufferView" : 4,
            "componentType" : 5125,
            "count" : 166080,
            "type" : "SCALAR"
        },
        {
            "bufferView" : 5,
            "componentType" : 5126,
            "count" : 4,
            "max" : [
                -0.5705280303955078,
                0.052376747131347656,
                -0.17385387420654297
            ],
            "min" : [
                -1.9679489135742188,
                0.052376747131347656,
                -0.32114696502685547
            ],
            "type" : "VEC3"
        }
    ],
    "bufferViews" : [
        {
            "buffer" : 0,
            "byteLength" : 1348896,
            "byteOffset" : 0,
            "target" : 34962
        },
        {
            "buffer" : 0,
            "byteLength" : 1348896,
            "byteOffset" : 1348896,
            "target" : 34962
        },
        {
            "buffer" : 0,
            "byteLength" : 899264,
            "byteOffset" : 2697792,
            "target" : 34962
        },
        {
            "buffer" : 0,
            "byteLength" : 899264,
            "byteOffset" : 3597056,
            "target" : 34962
        },
        {
            "buffer" : 0,
            "byteLength" : 664320,
            "byteOffset" : 4496320,
            "target" : 34963
        },
        {
            "buffer" : 0,
            "byteLength" : 48,
            "byteOffset" : 5160640,
            "target" : 34962
        }
    ],
    "samplers" : [
        {
            "magFilter" : 9729,
            "minFilter" : 9987
        }
    ],
    "buffers" : [
        {
            "byteLength" : 5160688,
            "uri" : "ufofull.bin"
        }
    ]
}
